#!OML:ASF E:\Style3\Style3.ASF
:FULLY-SPECIFIED
:DEGREES
2924
root 0.217362 17.7868 0.474579 -169.083 79.8442 -180.481
lowerback -8.40642 -1.40068 -1.98741
upperback -8.54044 -1.3178 0.815145
thorax -4.10759 -0.348123 1.88363
lowerneck 0.228044 -3.66616 -8.6856
upperneck 9.52168 -5.48074 11.415
head 3.31973 -2.54352 4.75221
rclavicle 1.963e-015 2.5842e-015
rhumerus 57.8271 -23.2629 -27.9282
rradius 109.728
rwrist -76.8806
rhand 20.7574 13.0502
rfingers 7.12502
rthumb 45.24 -10.3542
lclavicle 1.963e-015 2.5842e-015
lhumerus 69.125 27.0982 40.228
lradius 118.358
lwrist 108.726
lhand -8.67452 39.2628
lfingers 7.12502
lthumb 17.2597 68.5164
rfemur -12.4863 9.07243 16.4218
rtibia 19.1763
rfoot -14.5936 -26.6933
rtoes -9.86457
lfemur -5.33541 -21.8283 -12.8539
ltibia -2.22639e-014
lfoot -5.51259 16.9448
ltoes -22.5539
2925
root 0.217202 17.7855 0.474665 -169.412 79.8525 -180.796
lowerback -8.3657 -1.42942 -2.04228
upperback -8.53793 -1.3552 0.825693
thorax -4.12437 -0.364037 1.92422
lowerneck -0.339924 -3.75812 -8.46888
upperneck 10.2139 -5.58993 11.0423
head 3.6182 -2.57484 4.58541
rclavicle 1.09829e-014 8.94531e-015
rhumerus 58.3018 -23.0761 -27.8512
rradius 109.567
rwrist -76.9074
rhand 21.4458 13.1759
rfingers 7.12502
rthumb 45.8795 -9.96866
lclavicle 1.09829e-014 8.94531e-015
lhumerus 69.4149 27.2945 40.3665
lradius 117.817
lwrist 107.946
lhand -7.46426 39.34
lfingers 7.12502
lthumb 18.4243 68.4874
rfemur -12.4649 9.05779 16.3649
rtibia 19.1813
rfoot -14.6104 -26.6887
rtoes -9.94986
lfemur -5.31952 -21.8331 -12.9185
ltibia -9.54166e-015
lfoot -5.50219 16.9288
ltoes -22.587
2926
root 0.217691 17.7839 0.474603 -169.428 79.8119 -180.782
lowerback -8.31454 -1.45632 -2.02355
upperback -8.53092 -1.39423 0.837638
thorax -4.14338 -0.384706 1.92515
lowerneck -0.843428 -3.78287 -8.25754
upperneck 10.7045 -5.60836 10.7731
head 3.83945 -2.56419 4.45683
rclavicle -2.90226e-014 -7.7526e-015
rhumerus 58.7153 -22.9071 -27.8195
rradius 109.541
rwrist -77.0478
rhand 21.9664 13.0102
rfingers 7.12502
rthumb 46.3623 -9.93193
lclavicle -2.90226e-014 -7.7526e-015
lhumerus 69.6471 27.4713 40.3863
lradius 117.329
lwrist 107.081
lhand -6.32204 39.2212
lfingers 7.12502
lthumb 19.5228 68.2611
rfemur -12.4274 9.02709 16.3797
rtibia 19.1859
rfoot -14.645 -26.6832
rtoes -9.80817
lfemur -5.29483 -21.876 -12.9189
ltibia -1.90833e-014
lfoot -5.47225 16.9284
ltoes -22.7302
2927
root 0.218682 17.7839 0.475087 -169.547 79.7926 -180.899
lowerback -8.30946 -1.49109 -2.0388
upperback -8.53754 -1.43937 0.84991
thorax -4.15047 -0.405894 1.94445
lowerneck -0.857922 -3.7495 -8.24204
upperneck 10.7392 -5.56543 10.7837
head 3.84777 -2.54064 4.45957
rclavicle 3.88127e-014 1.5207e-014
rhumerus 59.1366 -22.7014 -27.8046
rradius 109.545
rwrist -77.3197
rhand 22.4728 12.8877
rfingers 7.12502
rthumb 46.8313 -9.85247
lclavicle 3.88127e-014 1.5207e-014
lhumerus 69.8235 27.6395 40.3061
lradius 116.812
lwrist 106.008
lhand -4.8986 39.2078
lfingers 7.12502
lthumb 20.8908 68.103
rfemur -12.4232 8.99583 16.3628
rtibia 19.194
rfoot -14.7094 -26.663
rtoes -9.59562
lfemur -5.28986 -21.8995 -12.9386
ltibia -7.95139e-015
lfoot -5.4735 16.9048
ltoes -22.8138
2928
root 0.218136 17.7838 0.474705 -169.677 79.7851 -181.03
lowerback -8.28821 -1.49155 -2.01367
upperback -8.56024 -1.44102 0.820697
thorax -4.1875 -0.407641 1.90055
lowerneck -0.661371 -3.7733 -8.27432
upperneck 10.6317 -5.61166 10.9208
head 3.79112 -2.56506 4.50918
rclavicle 1.64494e-014 1.26228e-014
rhumerus 59.4828 -22.5535 -27.7796
rradius 109.494
rwrist -77.7187
rhand 22.9359 12.8589
rfingers 7.12502
rthumb 47.2597 -9.69209
lclavicle 1.64494e-014 1.26228e-014
lhumerus 70.0964 27.7575 40.3257
lradius 116.226
lwrist 105.083
lhand -3.19504 39.1768
lfingers 7.12502
lthumb 22.5268 67.8828
rfemur -12.4308 8.97069 16.3337
rtibia 19.1923
rfoot -14.7009 -26.6588
rtoes -9.61698
lfemur -5.28715 -21.9121 -12.9654
ltibia -1.43125e-014
lfoot -5.58045 16.9313
ltoes -22.3695
2929
root 0.216911 17.7838 0.47495 -169.664 79.8044 -181.015
lowerback -8.23506 -1.47117 -1.97383
upperback -8.57114 -1.41787 0.78824
thorax -4.23115 -0.398529 1.84671
lowerneck -0.646694 -3.82071 -8.32546
upperneck 10.6583 -5.69124 11.0962
head 3.81016 -2.59748 4.56955
rclavicle 2.25248e-014 -8.54774e-015
rhumerus 59.813 -22.4376 -27.7614
rradius 109.431
rwrist -78.074
rhand 23.3003 12.9322
rfingers 7.12502
rthumb 47.5962 -9.46687
lclavicle 2.25248e-014 -8.54774e-015
lhumerus 70.4582 27.8509 40.4698
lradius 115.612
lwrist 104.332
lhand -1.51988 39.1563
lfingers 7.12502
lthumb 24.1338 67.6583
rfemur -12.448 8.98403 16.331
rtibia 19.2028
rfoot -14.67 -26.663
rtoes -9.71513
lfemur -5.27913 -21.8928 -12.9674
ltibia -4.77083e-015
lfoot -5.655 16.9391
ltoes -21.913
2930
root 0.215465 17.7837 0.477271 -169.56 79.7869 -180.913
lowerback -8.1619 -1.4749 -1.94739
upperback -8.59229 -1.42567 0.773593
thorax -4.29469 -0.403132 1.81791
lowerneck -0.585661 -3.85474 -8.47923
upperneck 10.6836 -5.76265 11.4011
head 3.82637 -2.62514 4.68935
rclavicle 4.53602e-014 1.18277e-014
rhumerus 60.1668 -22.308 -27.7776
rradius 109.384
rwrist -78.3927
rhand 23.6242 13.2121
rfingers 7.12502
rthumb 47.8951 -9.04948
lclavicle 4.53602e-014 1.18277e-014
lhumerus 70.688 27.8933 40.5441
lradius 115.089
lwrist 103.721
lhand 0.159757 39.1756
lfingers 7.12502
lthumb 25.7434 67.4543
rfemur -12.4608 8.99496 16.3599
rtibia 19.2124
rfoot -14.6747 -26.6833
rtoes -9.75949
lfemur -5.297 -21.9038 -12.9303
ltibia -4.77083e-015
lfoot -5.60506 16.939
ltoes -22.0425
